<?xml version="1.0" encoding="UTF-8" standalone="no"?>
<svg xmlns:dc="http://purl.org/dc/elements/1.1/" xmlns:cc="http://creativecommons.org/ns#" xmlns:rdf="http://www.w3.org/1999/02/22-rdf-syntax-ns#" xmlns:svg="http://www.w3.org/2000/svg" xmlns="http://www.w3.org/2000/svg" xmlns:sodipodi="http://sodipodi.sourceforge.net/DTD/sodipodi-0.dtd" xmlns:inkscape="http://www.inkscape.org/namespaces/inkscape" id="svg" version="1.1" width="400" height="400" viewBox="0 0 400 400" sodipodi:docname="image2vector(2).svg" inkscape:version="0.92.3 (2405546, 2018-03-11)">
  <metadata id="metadata10">
    <rdf:RDF>
      <cc:Work rdf:about="">
        <dc:format>image/svg+xml</dc:format>
        <dc:type rdf:resource="http://purl.org/dc/dcmitype/StillImage"/>
      </cc:Work>
    </rdf:RDF>
  </metadata>
  <defs id="defs8"/>
  <sodipodi:namedview pagecolor="#ffffff" fill-opacity="0.0" bordercolor="#666666" borderopacity="1" objecttolerance="10" gridtolerance="10" guidetolerance="10" inkscape:pageopacity="0" inkscape:pageshadow="2" inkscape:window-width="1366" inkscape:window-height="710" id="namedview6" showgrid="false" inkscape:zoom="4.72" inkscape:cx="191.03645" inkscape:cy="207.63458" inkscape:window-x="0" inkscape:window-y="0" inkscape:window-maximized="1" inkscape:current-layer="svg"/>
  <g id="svgg">
    <path id="path0" d="M197.976 36.507 C 196.661 39.180,189.064 54.180,172.202 87.400 C 164.417 102.736,154.687 121.917,144.505 142.000 C 132.213 166.246,112.440 205.223,102.298 225.200 C 98.780 232.130,92.526 244.460,88.400 252.600 C 78.610 271.916,68.348 292.150,59.897 308.800 C 53.346 321.708,43.449 341.217,34.345 359.167 C 31.955 363.879,30.000 367.974,30.000 368.267 C 30.000 368.710,58.684 368.800,200.000 368.800 L 370.000 368.800 370.000 367.880 C 370.000 367.374,369.836 366.789,369.636 366.580 C 369.436 366.371,366.082 359.900,362.183 352.200 C 358.283 344.500,352.080 332.260,348.398 325.000 C 333.772 296.160,327.396 283.591,320.399 269.800 C 309.370 248.062,299.354 228.311,292.812 215.400 C 289.579 209.020,283.549 197.140,279.412 189.000 C 272.136 174.683,265.523 161.642,250.201 131.400 C 246.189 123.480,239.890 111.060,236.203 103.800 C 227.883 87.413,217.547 67.029,208.013 48.200 C 199.772 31.926,200.063 32.266,197.976 36.507 M205.227 55.311 C 207.772 60.420,213.242 71.260,217.382 79.400 C 221.523 87.540,227.694 99.690,231.096 106.400 C 234.498 113.110,240.708 125.350,244.897 133.600 C 249.086 141.850,255.704 154.900,259.604 162.600 C 270.131 183.383,280.658 204.145,288.199 219.000 C 291.885 226.260,298.231 238.770,302.301 246.800 C 306.372 254.830,312.584 267.070,316.107 274.000 C 319.629 280.930,325.659 292.810,329.506 300.400 C 333.354 307.990,339.833 320.770,343.903 328.800 C 360.965 362.456,360.963 362.451,360.364 362.831 C 359.636 363.291,40.388 363.307,39.661 362.846 C 39.062 362.467,38.889 362.827,53.024 335.000 C 66.483 308.502,78.550 284.711,92.284 257.600 C 97.355 247.590,104.248 234.000,107.602 227.400 C 122.864 197.364,127.423 188.384,134.809 173.800 C 150.348 143.120,171.350 101.718,179.347 86.000 C 182.761 79.290,188.670 67.558,192.477 59.928 C 196.889 51.088,199.618 46.050,200.000 46.039 C 200.390 46.028,202.222 49.278,205.227 55.311 M194.400 147.662 C 179.810 149.626,166.858 155.564,153.107 166.593 C 142.285 175.273,130.000 188.830,130.000 192.092 C 130.000 195.533,144.609 211.132,155.672 219.504 C 175.949 234.848,198.171 240.335,216.000 234.400 C 232.126 229.031,244.405 221.176,257.993 207.535 C 259.820 205.701,262.679 202.580,264.346 200.600 C 266.013 198.620,267.490 196.910,267.628 196.800 C 268.463 196.138,270.000 193.027,270.000 192.000 C 270.000 188.532,254.728 172.019,245.041 165.013 C 244.139 164.360,243.310 163.713,243.200 163.576 C 243.090 163.440,240.930 161.971,238.400 160.313 C 223.359 150.456,207.503 145.897,194.400 147.662 M211.800 158.176 C 222.052 160.948,231.395 166.005,242.000 174.520 C 247.232 178.722,259.200 190.901,259.200 192.024 C 259.200 192.763,246.932 205.495,243.200 208.630 C 232.675 217.470,221.256 223.587,210.200 226.309 C 206.616 227.191,193.782 227.290,190.400 226.461 C 175.427 222.792,163.109 215.177,148.500 200.558 C 144.265 196.320,140.800 192.605,140.800 192.303 C 140.800 191.196,149.357 182.016,154.837 177.245 C 168.140 165.662,179.711 159.633,193.600 157.046 C 196.878 156.436,207.894 157.120,211.800 158.176 M195.008 164.800 C 184.119 166.770,174.993 175.869,172.941 186.800 C 168.749 209.134,191.369 226.560,212.000 216.890 C 214.320 215.803,218.985 212.558,220.000 211.326 C 225.693 204.414,227.366 200.083,227.387 192.200 C 227.432 174.601,212.178 161.693,195.008 164.800 M207.771 175.347 C 211.406 177.143,214.644 180.340,216.644 184.106 L 218.181 187.000 218.181 192.000 L 218.181 197.000 216.596 199.986 C 214.586 203.772,211.784 206.577,207.986 208.605 L 205.000 210.200 200.000 210.189 C 183.579 210.151,175.497 191.202,186.857 179.372 C 192.451 173.547,200.856 171.929,207.771 175.347 M94.097 288.492 L 94.200 313.000 101.400 313.114 C 110.902 313.264,110.400 313.436,110.400 310.035 C 110.400 306.795,110.407 306.800,106.167 306.800 L 103.200 306.800 103.200 288.416 L 103.200 270.031 106.700 269.916 L 110.200 269.800 110.200 267.000 L 110.200 264.200 102.097 264.092 L 93.994 263.983 94.097 288.492 M121.297 291.482 L 121.400 319.000 123.373 319.125 C 124.459 319.194,125.765 319.145,126.276 319.017 L 127.206 318.783 127.103 291.492 L 127.000 264.200 124.097 264.082 L 121.194 263.965 121.297 291.482 M141.297 291.482 L 141.400 319.000 143.373 319.125 C 144.459 319.194,145.765 319.145,146.276 319.017 L 147.206 318.783 147.103 291.492 L 147.000 264.200 144.097 264.082 L 141.194 263.965 141.297 291.482 M253.297 291.482 L 253.400 319.000 255.373 319.125 C 256.459 319.194,257.765 319.145,258.276 319.017 L 259.206 318.783 259.103 291.492 L 259.000 264.200 256.097 264.082 L 253.194 263.965 253.297 291.482 M273.297 291.482 L 273.400 319.000 275.373 319.125 C 276.459 319.194,277.765 319.145,278.276 319.017 L 279.206 318.783 279.103 291.492 L 279.000 264.200 276.097 264.082 L 273.194 263.965 273.297 291.482 M290.000 266.976 L 290.000 269.969 293.500 270.084 L 297.000 270.200 297.104 288.484 L 297.208 306.769 293.704 306.884 L 290.200 307.000 290.200 310.000 L 290.200 313.000 297.400 313.114 C 301.360 313.176,305.006 313.128,305.503 313.005 L 306.406 312.783 306.303 288.492 L 306.200 264.200 298.100 264.092 L 290.000 263.983 290.000 266.976 M160.000 283.000 L 160.000 286.009 177.100 285.904 L 194.200 285.800 194.200 283.000 L 194.200 280.200 177.100 280.096 L 160.000 279.991 160.000 283.000 M206.000 283.000 L 206.000 286.009 223.100 285.904 L 240.200 285.800 240.200 283.000 L 240.200 280.200 223.100 280.096 L 206.000 279.991 206.000 283.000 M160.000 295.000 L 160.000 298.009 177.100 297.904 L 194.200 297.800 194.200 295.000 L 194.200 292.200 177.100 292.096 L 160.000 291.991 160.000 295.000 M206.000 295.000 L 206.000 298.009 223.100 297.904 L 240.200 297.800 240.200 295.000 L 240.200 292.200 223.100 292.096 L 206.000 291.991 206.000 295.000 " stroke="none" fill="#000000" fill-rule="evenodd" class="vonal"/>
    <path id="path1" d="M0.000 200.000 L 0.000 400.000 200.000 400.000 L 400.000 400.000 400.000 200.000 L 400.000 0.000 200.000 0.000 L 0.000 0.000 0.000 200.000 M208.013 48.200 C 217.547 67.029,227.883 87.413,236.203 103.800 C 239.890 111.060,246.189 123.480,250.201 131.400 C 265.523 161.642,272.136 174.683,279.412 189.000 C 283.549 197.140,289.579 209.020,292.812 215.400 C 299.354 228.311,309.370 248.062,320.399 269.800 C 327.396 283.591,333.772 296.160,348.398 325.000 C 352.080 332.260,358.283 344.500,362.183 352.200 C 366.082 359.900,369.436 366.371,369.636 366.580 C 369.836 366.789,370.000 367.374,370.000 367.880 L 370.000 368.800 200.000 368.800 C 58.684 368.800,30.000 368.710,30.000 368.267 C 30.000 367.974,31.955 363.879,34.345 359.167 C 43.449 341.217,53.346 321.708,59.897 308.800 C 68.348 292.150,78.610 271.916,88.400 252.600 C 92.526 244.460,98.780 232.130,102.298 225.200 C 112.440 205.223,132.213 166.246,144.505 142.000 C 154.687 121.917,164.417 102.736,172.202 87.400 C 189.064 54.180,196.661 39.180,197.976 36.507 C 200.063 32.266,199.772 31.926,208.013 48.200 M192.477 59.928 C 188.670 67.558,182.761 79.290,179.347 86.000 C 171.350 101.718,150.348 143.120,134.809 173.800 C 127.423 188.384,122.864 197.364,107.602 227.400 C 104.248 234.000,97.355 247.590,92.284 257.600 C 78.550 284.711,66.483 308.502,53.024 335.000 C 38.889 362.827,39.062 362.467,39.661 362.846 C 40.388 363.307,359.636 363.291,360.364 362.831 C 360.963 362.451,360.965 362.456,343.903 328.800 C 339.833 320.770,333.354 307.990,329.506 300.400 C 325.659 292.810,319.629 280.930,316.107 274.000 C 312.584 267.070,306.372 254.830,302.301 246.800 C 298.231 238.770,291.885 226.260,288.199 219.000 C 280.658 204.145,270.131 183.383,259.604 162.600 C 255.704 154.900,249.086 141.850,244.897 133.600 C 240.708 125.350,234.498 113.110,231.096 106.400 C 227.694 99.690,221.523 87.540,217.382 79.400 C 213.242 71.260,207.772 60.420,205.227 55.311 C 202.222 49.278,200.390 46.028,200.000 46.039 C 199.618 46.050,196.889 51.088,192.477 59.928 M205.200 147.617 C 214.573 148.769,220.496 150.617,229.800 155.289 C 233.194 156.994,242.570 162.793,243.200 163.576 C 243.310 163.713,244.139 164.360,245.041 165.013 C 254.728 172.019,270.000 188.532,270.000 192.000 C 270.000 193.027,268.463 196.138,267.628 196.800 C 267.490 196.910,266.013 198.620,264.346 200.600 C 257.415 208.832,247.988 217.327,239.400 223.080 C 234.033 226.675,230.290 228.722,224.200 231.396 C 223.098 231.879,218.392 233.604,216.000 234.400 C 191.170 242.666,158.629 228.508,134.178 198.800 C 128.453 191.844,128.454 191.834,136.083 183.000 C 156.994 158.790,183.927 145.002,205.200 147.617 M193.600 157.046 C 179.711 159.633,168.140 165.662,154.837 177.245 C 149.357 182.016,140.800 191.196,140.800 192.303 C 140.800 192.605,144.265 196.320,148.500 200.558 C 163.109 215.177,175.427 222.792,190.400 226.461 C 193.782 227.290,206.616 227.191,210.200 226.309 C 221.256 223.587,232.675 217.470,243.200 208.630 C 246.932 205.495,259.200 192.763,259.200 192.024 C 259.200 189.718,242.301 174.133,233.400 168.230 C 220.019 159.355,204.547 155.008,193.600 157.046 M208.593 165.785 C 220.467 169.771,227.419 179.543,227.387 192.200 C 227.366 200.083,225.693 204.414,220.000 211.326 C 218.985 212.558,214.320 215.803,212.000 216.890 C 191.369 226.560,168.749 209.134,172.941 186.800 C 175.971 170.655,193.072 160.575,208.593 165.785 M195.924 173.952 C 192.976 174.579,189.416 176.707,186.857 179.372 C 175.497 191.202,183.579 210.151,200.000 210.189 L 205.000 210.200 207.986 208.605 C 211.784 206.577,214.586 203.772,216.596 199.986 L 218.181 197.000 218.181 192.000 L 218.181 187.000 216.644 184.106 C 212.526 176.353,204.087 172.217,195.924 173.952 M110.200 267.000 L 110.200 269.800 106.700 269.916 L 103.200 270.031 103.200 288.416 L 103.200 306.800 106.167 306.800 C 110.407 306.800,110.400 306.795,110.400 310.035 C 110.400 313.436,110.902 313.264,101.400 313.114 L 94.200 313.000 94.097 288.492 L 93.994 263.983 102.097 264.092 L 110.200 264.200 110.200 267.000 M127.103 291.492 L 127.206 318.783 126.276 319.017 C 125.765 319.145,124.459 319.194,123.373 319.125 L 121.400 319.000 121.297 291.482 L 121.194 263.965 124.097 264.082 L 127.000 264.200 127.103 291.492 M147.103 291.492 L 147.206 318.783 146.276 319.017 C 145.765 319.145,144.459 319.194,143.373 319.125 L 141.400 319.000 141.297 291.482 L 141.194 263.965 144.097 264.082 L 147.000 264.200 147.103 291.492 M259.103 291.492 L 259.206 318.783 258.276 319.017 C 257.765 319.145,256.459 319.194,255.373 319.125 L 253.400 319.000 253.297 291.482 L 253.194 263.965 256.097 264.082 L 259.000 264.200 259.103 291.492 M279.103 291.492 L 279.206 318.783 278.276 319.017 C 277.765 319.145,276.459 319.194,275.373 319.125 L 273.400 319.000 273.297 291.482 L 273.194 263.965 276.097 264.082 L 279.000 264.200 279.103 291.492 M306.303 288.492 L 306.406 312.783 305.503 313.005 C 305.006 313.128,301.360 313.176,297.400 313.114 L 290.200 313.000 290.200 310.000 L 290.200 307.000 293.704 306.884 L 297.208 306.769 297.104 288.484 L 297.000 270.200 293.500 270.084 L 290.000 269.969 290.000 266.976 L 290.000 263.983 298.100 264.092 L 306.200 264.200 306.303 288.492 M194.200 283.000 L 194.200 285.800 177.100 285.904 L 160.000 286.009 160.000 283.000 L 160.000 279.991 177.100 280.096 L 194.200 280.200 194.200 283.000 M240.200 283.000 L 240.200 285.800 223.100 285.904 L 206.000 286.009 206.000 283.000 L 206.000 279.991 223.100 280.096 L 240.200 280.200 240.200 283.000 M194.200 295.000 L 194.200 297.800 177.100 297.904 L 160.000 298.009 160.000 295.000 L 160.000 291.991 177.100 292.096 L 194.200 292.200 194.200 295.000 M240.200 295.000 L 240.200 297.800 223.100 297.904 L 206.000 298.009 206.000 295.000 L 206.000 291.991 223.100 292.096 L 240.200 292.200 240.200 295.000 " stroke="none" fill="#ffffff" fill-opacity="0.0" fill-rule="evenodd"/>
  </g>
  <circle style="fill:#ffffff" fill-opacity="0.0" id="path12" class="kor" cx="200.00002" cy="192.37286" r="20.338984"/>
</svg>